<svg width="16" height="16" viewBox="0 0 16 16" fill="none" xmlns="http://www.w3.org/2000/svg">
<path d="M5.99984 1.91699C5.58562 1.91699 5.24984 2.25278 5.24984 2.66699C5.24984 3.08121 5.58562 3.41699 5.99984 3.41699V1.91699ZM12.5832 10.0003C12.5832 10.4145 12.919 10.7503 13.3332 10.7503C13.7474 10.7503 14.0832 10.4145 14.0832 10.0003H12.5832ZM3.33317 6.08366H9.99984V4.58366H3.33317V6.08366ZM9.9165 6.00033V12.667H11.4165V6.00033H9.9165ZM9.99984 12.5837H3.33317L3.33317 14.0837H9.99984V12.5837ZM3.4165 12.667L3.4165 6.00033H1.9165L1.9165 12.667H3.4165ZM3.33317 12.5837C3.37919 12.5837 3.4165 12.621 3.4165 12.667H1.9165C1.9165 13.4494 2.55077 14.0837 3.33317 14.0837L3.33317 12.5837ZM9.9165 12.667C9.9165 12.621 9.95381 12.5837 9.99984 12.5837V14.0837C10.7822 14.0837 11.4165 13.4494 11.4165 12.667H9.9165ZM9.99984 6.08366C9.95381 6.08366 9.9165 6.04635 9.9165 6.00033H11.4165C11.4165 5.21792 10.7822 4.58366 9.99984 4.58366V6.08366ZM3.33317 4.58366C2.55077 4.58366 1.9165 5.21792 1.9165 6.00033H3.4165C3.4165 6.04635 3.37919 6.08366 3.33317 6.08366V4.58366ZM5.99984 3.41699L12.6665 3.41699V1.91699L5.99984 1.91699V3.41699ZM12.5832 3.33366V10.0003H14.0832V3.33366L12.5832 3.33366ZM12.6665 3.41699C12.6205 3.41699 12.5832 3.37968 12.5832 3.33366L14.0832 3.33366C14.0832 2.55126 13.4489 1.91699 12.6665 1.91699V3.41699Z" fill="white"/>
</svg>
