<svg width="32" height="32" viewBox="0 0 32 32" fill="white" xmlns="http://www.w3.org/2000/svg">
<path d="M15.7294 31.2239C15.5933 31.0957 15.1216 30.0719 14.2333 27.9838L12.9374 24.9196H9.08135C6.84931 24.9196 5.04149 24.8879 4.79355 24.8398C4.15345 24.7198 3.2893 24.2638 2.82517 23.7997C2.35349 23.328 1.89753 22.5038 1.76933 21.8957C1.70553 21.6079 1.68164 19.3837 1.68164 14.8159C1.68164 9.08764 1.69736 8.08773 1.80138 7.67984C2.18538 6.20764 3.40934 5.07953 4.88154 4.84761C5.60116 4.72788 26.4094 4.72788 27.1215 4.84761C28.5535 5.07166 29.7375 6.09576 30.1614 7.45579C30.3135 7.95983 30.3217 8.19174 30.3217 14.7917C30.3217 19.0877 30.2893 21.7279 30.2334 21.9516C30.0175 22.9038 29.2014 23.9596 28.3376 24.4238C27.4496 24.8957 27.2334 24.9196 22.9933 24.9196H19.1455L17.8496 27.9838C17.1293 29.6637 16.4895 31.0957 16.4173 31.1676C16.1775 31.4077 15.9534 31.4237 15.7294 31.2239ZM25.6813 20.3198C25.9214 20.1837 26.2334 19.9276 26.3774 19.7356C26.8494 19.1119 26.8814 18.8799 26.8814 15.7838V12.9996H25.2015V13.5036L25.0255 13.3437C24.5853 12.9437 23.9935 12.8076 23.3135 12.9437C22.0333 13.2076 21.3615 14.1199 21.3615 15.5918C21.3615 16.8239 21.6974 17.4398 22.6093 17.8879C23.0175 18.0878 23.2255 18.1437 23.5854 18.1437C24.1614 18.1358 24.6415 18.0076 24.9215 17.7839L25.1452 17.6076L25.0893 17.9599C24.9774 18.6559 24.6095 19 23.9694 19H23.6014V20.6158L24.4253 20.5838C25.1455 20.5596 25.2895 20.5278 25.6813 20.3198ZM9.40941 17.8637C9.86537 17.6557 10.3053 17.2076 10.5133 16.7676C10.7374 16.2636 10.7456 15.0717 10.5294 14.4476C10.3694 13.9759 9.8814 13.3836 9.48924 13.1759C8.67346 12.7517 7.63334 12.8236 7.0655 13.3437L6.88136 13.5039V10.8398H5.12161L5.13734 14.3835L5.16153 17.9196L6.02538 17.9438C6.84145 17.968 6.88136 17.9599 6.88136 17.7996C6.88136 17.5997 6.90555 17.5997 7.27353 17.8398C7.8335 18.2157 8.64927 18.2235 9.40941 17.8637ZM18.7775 17.9438C19.2655 17.7679 19.9295 17.2 20.1935 16.7277C21.0655 15.2078 20.0734 13.3679 18.1855 12.9996C17.0014 12.7677 15.7212 13.3437 15.1616 14.3678C14.9853 14.7037 14.9215 14.9278 14.8973 15.4079C14.8655 15.9437 14.8894 16.0716 15.0814 16.5037C15.3133 17.0237 15.8413 17.5919 16.3214 17.8398C17.0174 18.1996 17.9774 18.2398 18.7775 17.9438ZM13.7214 12.4798L13.4574 11.9438C13.0895 11.1999 12.5053 10.7996 11.5453 10.6397L11.2015 10.5837V11.4718C11.2015 12.2316 11.2175 12.3598 11.3294 12.3598C11.4014 12.3598 11.5773 12.4798 11.7294 12.6319L12.0016 12.9038V17.9599H13.7692L13.7214 12.4798Z" fill="white"/>
<path d="M23.7852 16.4798C23.2573 16.2557 23.0493 15.5358 23.3613 15.0236C23.7937 14.3119 24.8015 14.3757 25.1374 15.1355C25.3853 15.7039 25.1374 16.2875 24.5375 16.5118C24.2412 16.6237 24.097 16.6159 23.7852 16.4798ZM7.37754 16.3918C6.78551 15.9836 6.84931 15.0236 7.48941 14.7197C8.36929 14.3037 9.20955 15.1757 8.76145 16.0399C8.5374 16.4798 7.77726 16.6718 7.37754 16.3918ZM17.1454 16.4399C17.0262 16.3685 16.9229 16.2736 16.8417 16.161C16.7606 16.0483 16.7032 15.9202 16.6733 15.7847C16.6433 15.6491 16.6414 15.5088 16.6676 15.3724C16.6937 15.236 16.7474 15.1064 16.8254 14.9916C17.0574 14.6478 17.3053 14.5199 17.7534 14.5199C18.0494 14.5199 18.1453 14.5598 18.4095 14.8316C18.6735 15.0959 18.7213 15.1917 18.7213 15.4877C18.7213 16.3437 17.8496 16.8716 17.1454 16.4399Z" fill="white"/>
</svg>
