<svg width="24" height="24" viewBox="0 0 24 24" fill="none" xmlns="http://www.w3.org/2000/svg">
<path fill-rule="evenodd" clip-rule="evenodd" d="M10.8 2.65C11.5111 2.11667 12.4889 2.11667 13.2 2.65L20.2 7.9C20.7036 8.27771 21 8.87049 21 9.5V19C21 20.1046 20.1046 21 19 21H15C13.8954 21 13 20.1046 13 19V15H11V19C11 20.1046 10.1046 21 9 21H5C3.89543 21 3 20.1046 3 19V9.5C3 8.87049 3.29639 8.27771 3.8 7.9L10.8 2.65ZM19 9.5L12 4.25L5 9.5V19H9V15C9 13.8954 9.89543 13 11 13H13C14.1046 13 15 13.8954 15 15V19H19V9.5Z" fill="#292A2E"/>
</svg>
