<svg width="12" height="12" viewBox="0 0 12 12" fill="none" xmlns="http://www.w3.org/2000/svg">
<g id="Arrow Up Down">
<path id="Vector (Stroke)" fill-rule="evenodd" clip-rule="evenodd" d="M7.30866 1.53807C7.4955 1.46068 7.71055 1.50346 7.85355 1.64646L10.3536 4.14646C10.5488 4.34172 10.5488 4.65831 10.3536 4.85357C10.1583 5.04883 9.84171 5.04883 9.64645 4.85357L8 3.20712V10C8 10.2762 7.77614 10.5 7.5 10.5C7.22386 10.5 7 10.2762 7 10V2.00001C7 1.79778 7.12182 1.61547 7.30866 1.53807ZM4.5 1.50001C4.77614 1.50001 5 1.72387 5 2.00001V10C5 10.2022 4.87818 10.3846 4.69134 10.462C4.5045 10.5393 4.28945 10.4966 4.14645 10.3536L1.64645 7.85357C1.45118 7.65831 1.45118 7.34172 1.64645 7.14646C1.84171 6.9512 2.15829 6.9512 2.35355 7.14646L4 8.79291V2.00001C4 1.72387 4.22386 1.50001 4.5 1.50001Z" fill="#292A2E"/>
</g>
</svg>
