<svg width="126" height="32" viewBox="0 0 126 32" fill="none" xmlns="http://www.w3.org/2000/svg">
<path d="M21.9121 15.15C21.8786 11.6863 24.7906 9.99932 24.9243 9.91842C24.3466 9.10541 23.5845 8.43643 22.6986 7.96466C21.8126 7.49289 20.8273 7.23132 19.8208 7.20075C17.6749 6.97902 15.5927 8.4652 14.4985 8.4652C13.4042 8.4652 11.699 7.22172 9.88743 7.26666C8.71571 7.30439 7.57379 7.64012 6.57253 8.24125C5.57126 8.84239 4.74467 9.68851 4.173 10.6975C1.70181 14.9163 3.54684 21.1187 5.91468 24.5286C7.10013 26.1975 8.48315 28.0642 10.2947 27.9983C12.1063 27.9324 12.7264 26.8837 14.8724 26.8837C17.0183 26.8837 17.608 27.9983 19.4622 27.9564C21.3649 27.9264 22.5656 26.2784 23.7176 24.5915C24.5681 23.4019 25.2226 22.0872 25.6568 20.6962C25.5991 20.6813 21.9455 19.3089 21.9121 15.15Z" fill="white"/>
<path d="M18.4191 4.39862C19.3705 3.22406 20.024 1.62401 19.8417 0C18.4617 0.0599267 16.7352 0.940849 15.7413 2.09743C14.8628 3.1102 14.0786 4.77316 14.2792 6.33425C15.8294 6.44811 17.4222 5.54921 18.4191 4.39862Z" fill="white"/>
<path d="M49.0927 22.6069H46.6154L45.2567 18.412H40.5393L39.2474 22.6069H36.834L41.5089 8.29337H44.3965L49.0927 22.6069ZM44.8372 16.6382L43.6214 12.9017C43.4917 12.5182 43.2475 11.6193 42.8889 10.205H42.8433C42.6994 10.8163 42.4704 11.7152 42.1563 12.9017L40.9405 16.6382H44.8372Z" fill="white"/>
<path d="M61.1138 17.3182C61.1138 19.0741 60.6325 20.4614 59.67 21.4801C59.2632 21.9188 58.7655 22.2662 58.2107 22.4988C57.6559 22.7314 57.0568 22.8439 56.4541 22.8285C55.0782 22.8285 54.0873 22.3401 53.4814 21.3633H53.4388V26.7986H51.1105V15.6822C51.1105 14.5796 51.0821 13.447 51.0254 12.2844H53.071L53.2017 13.9204H53.2443C54.0184 12.6879 55.1957 12.0716 56.7763 12.0716C57.3696 12.064 57.9568 12.1902 58.4931 12.4405C59.0294 12.6908 59.5005 13.0586 59.8706 13.5159C60.6994 14.4807 61.1138 15.7481 61.1138 17.3182ZM58.7429 17.4021C58.7797 16.5241 58.5397 15.6563 58.056 14.9182C57.8586 14.646 57.6064 14.4168 57.3152 14.2451C57.024 14.0733 56.6999 13.9626 56.3633 13.9198C56.0267 13.8771 55.6848 13.9032 55.3589 13.9966C55.033 14.0901 54.7301 14.2487 54.4692 14.4627C54.0035 14.8371 53.6817 15.3573 53.5574 15.9369C53.495 16.1659 53.4593 16.4011 53.451 16.6381V18.358C53.4321 19.0564 53.6818 19.7361 54.1501 20.2606C54.3773 20.5144 54.6587 20.7156 54.9739 20.8497C55.2892 20.9839 55.6306 21.0477 55.9738 21.0367C56.3726 21.0523 56.7689 20.9688 57.1264 20.794C57.4839 20.6191 57.791 20.3584 58.0195 20.0359C58.5385 19.2561 58.7919 18.3335 58.7429 17.4021Z" fill="white"/>
<path d="M73.1732 17.3182C73.1732 19.0741 72.6919 20.4614 71.7294 21.4801C71.3216 21.9199 70.8224 22.268 70.2659 22.5007C69.7094 22.7333 69.1086 22.8451 68.5044 22.8285C67.1244 22.8285 66.1335 22.3401 65.5317 21.3633H65.4891V26.7986H63.1638V15.6822C63.1638 14.5796 63.1344 13.4469 63.0757 12.2844H65.1244L65.252 13.9204H65.2946C66.0687 12.6879 67.247 12.0716 68.8296 12.0716C69.4225 12.0643 70.0092 12.1906 70.5449 12.4409C71.0807 12.6912 71.5513 13.0589 71.9209 13.5159C72.7456 14.4807 73.1631 15.7481 73.1732 17.3182ZM70.8054 17.4021C70.8412 16.5237 70.6002 15.656 70.1154 14.9181C69.8909 14.5954 69.5881 14.3331 69.2345 14.1552C68.881 13.9772 68.4879 13.8893 68.091 13.8994C67.5189 13.8982 66.965 14.0979 66.5287 14.4627C66.0627 14.8369 65.7409 15.3572 65.6168 15.9369C65.5523 16.1655 65.5155 16.4009 65.5074 16.638V18.3579C65.4885 19.0564 65.7382 19.7361 66.2065 20.2606C66.4337 20.5144 66.715 20.7155 67.0303 20.8497C67.3456 20.9838 67.687 21.0477 68.0302 21.0367C68.4294 21.0522 68.8261 20.9688 69.1841 20.7939C69.542 20.6191 69.8497 20.3584 70.0789 20.0359C70.5923 19.2541 70.8413 18.3321 70.7902 17.4021H70.8054Z" fill="white"/>
<path d="M86.6225 18.5918C86.6423 19.1506 86.537 19.7068 86.3143 20.221C86.0916 20.7352 85.7568 21.1948 85.3337 21.5672C84.3894 22.4081 83.0713 22.8286 81.3792 22.8286C79.8169 22.8286 78.5625 22.529 77.6162 21.9297L78.1542 20.0181C79.1686 20.6191 80.3326 20.9304 81.516 20.917C82.2486 20.9564 82.9725 20.7447 83.5647 20.3177C83.8028 20.132 83.9932 19.8936 84.1205 19.6219C84.2478 19.3502 84.3083 19.0527 84.2972 18.7536C84.3032 18.4809 84.2524 18.2099 84.1478 17.9573C84.0433 17.7048 83.8872 17.4761 83.6893 17.2854C83.1032 16.7933 82.4202 16.426 81.6832 16.2067C79.1421 15.2719 77.8715 13.9025 77.8715 12.0988C77.8574 11.5487 77.9702 11.0026 78.2013 10.5017C78.4325 10.0008 78.776 9.55823 79.2059 9.20729C80.0955 8.45421 81.2809 8.07867 82.7622 8.08067C83.9009 8.03609 85.0336 8.26434 86.0632 8.74585L85.4827 10.6156C84.6268 10.1682 83.6701 9.94143 82.7014 9.95637C82.0101 9.91711 81.3283 10.1305 80.7865 10.5556C80.6003 10.7177 80.452 10.9176 80.3518 11.1415C80.2516 11.3655 80.2018 11.6083 80.206 11.8531C80.2004 12.121 80.2575 12.3867 80.3729 12.6294C80.4884 12.872 80.659 13.0852 80.8716 13.2523C81.5118 13.7291 82.2249 14.1023 82.9841 14.358C84.2324 14.8514 85.1514 15.4317 85.741 16.0989C86.3409 16.7919 86.6555 17.6814 86.6225 18.5918Z" fill="white"/>
<path d="M94.3162 14.0041H91.7508V19.017C91.7508 20.2914 92.2037 20.9286 93.1095 20.9286C93.4571 20.9354 93.8041 20.9002 94.143 20.8238L94.2068 22.5646C93.6187 22.754 93.0014 22.8402 92.3831 22.8193C91.9848 22.8413 91.5863 22.7789 91.2145 22.6363C90.8428 22.4936 90.5064 22.274 90.228 21.9923C89.7113 21.438 89.4529 20.5121 89.4529 19.2087V14.0041H87.9331V12.2842H89.4529V10.3935L91.7356 9.71335V12.2842H94.3011L94.3162 14.0041Z" fill="white"/>
<path d="M105.887 17.3601C105.887 18.9482 105.427 20.2466 104.507 21.2554C103.543 22.3041 102.264 22.8284 100.671 22.8284C99.1334 22.8284 97.9095 22.329 96.9997 21.3303C96.0712 20.2796 95.5823 18.9205 95.6319 17.5279C95.6319 15.9299 96.102 14.6205 97.0422 13.5997C97.9825 12.579 99.2459 12.0696 100.833 12.0716C101.523 12.0424 102.212 12.1612 102.852 12.4198C103.492 12.6785 104.067 13.0708 104.538 13.5698C105.438 14.5486 105.887 15.812 105.887 17.3601ZM103.456 17.435C103.485 16.5785 103.275 15.7305 102.848 14.984C102.651 14.6066 102.352 14.2908 101.983 14.0726C101.614 13.8545 101.19 13.7425 100.76 13.7495C100.323 13.7387 99.8928 13.8486 99.5167 14.0668C99.1406 14.285 98.8341 14.6028 98.6319 14.984C98.1937 15.7421 97.977 16.6049 98.0058 17.477C97.9803 18.3354 98.1971 19.1839 98.6319 19.928C98.8361 20.3032 99.1401 20.6165 99.5112 20.8342C99.8824 21.0519 100.307 21.1658 100.739 21.1637C101.171 21.1615 101.594 21.0434 101.963 20.822C102.332 20.6006 102.632 20.2842 102.833 19.907C103.274 19.1573 103.495 18.3014 103.471 17.435H103.456Z" fill="white"/>
<path d="M113.447 14.3009C113.205 14.2578 112.96 14.2368 112.714 14.238C112.347 14.22 111.981 14.2928 111.65 14.4498C111.319 14.6068 111.032 14.843 110.817 15.1369C110.411 15.7387 110.208 16.4519 110.237 17.1744V22.5917H107.912L107.933 15.5204C107.933 14.3218 107.903 13.2382 107.845 12.2694H109.872L109.951 14.2589H110.015C110.238 13.6193 110.645 13.0572 111.185 12.6409C111.67 12.2821 112.26 12.0877 112.866 12.0866C113.06 12.0854 113.255 12.0995 113.447 12.1285V14.3009Z" fill="white"/>
<path d="M123.852 16.9586C123.858 17.3071 123.83 17.6553 123.767 17.9983H116.776C116.803 19.0171 117.14 19.7962 117.788 20.3355C118.438 20.836 119.247 21.092 120.071 21.0576C121.035 21.0694 121.993 20.9027 122.895 20.5662L123.26 22.1603C122.146 22.6088 120.951 22.8261 119.749 22.7985C118.128 22.7985 116.853 22.3271 115.925 21.3842C114.997 20.4414 114.533 19.1779 114.533 17.5938C114.479 16.1847 114.939 14.8031 115.828 13.6986C116.262 13.1601 116.818 12.7296 117.451 12.4417C118.085 12.1539 118.778 12.0169 119.475 12.0416C120.983 12.0416 122.125 12.594 122.901 13.6986C123.554 14.6614 123.887 15.8009 123.852 16.9586ZM121.634 16.3594C121.669 15.7435 121.518 15.1311 121.199 14.6005C121.007 14.2905 120.733 14.0378 120.406 13.8695C120.079 13.7011 119.713 13.6234 119.345 13.6447C118.982 13.6385 118.622 13.7206 118.299 13.8836C117.976 14.0467 117.698 14.2857 117.491 14.5795C117.092 15.1018 116.854 15.7257 116.804 16.3773L121.634 16.3594Z" fill="white"/>
</svg>
