<svg width="17" height="16" viewBox="0 0 17 16" fill="none" xmlns="http://www.w3.org/2000/svg">
<path fill-rule="evenodd" clip-rule="evenodd" d="M8.49992 2.66634C5.5544 2.66634 3.16659 5.05416 3.16659 7.99967C3.16659 10.9452 5.5544 13.333 8.49992 13.333C11.4454 13.333 13.8333 10.9452 13.8333 7.99967C13.8333 5.05416 11.4454 2.66634 8.49992 2.66634ZM1.83325 7.99967C1.83325 4.31778 4.81802 1.33301 8.49992 1.33301C12.1818 1.33301 15.1666 4.31778 15.1666 7.99967C15.1666 11.6816 12.1818 14.6663 8.49992 14.6663C4.81802 14.6663 1.83325 11.6816 1.83325 7.99967Z" fill="#8C919F"/>
<path fill-rule="evenodd" clip-rule="evenodd" d="M8.49992 4.66699C8.86811 4.66699 9.16659 4.96547 9.16659 5.33366V8.00033C9.16659 8.36852 8.86811 8.66699 8.49992 8.66699C8.13173 8.66699 7.83325 8.36852 7.83325 8.00033V5.33366C7.83325 4.96547 8.13173 4.66699 8.49992 4.66699ZM8.49992 10.0003C8.86811 10.0003 9.16659 10.2988 9.16659 10.667V10.7337C9.16659 11.1018 8.86811 11.4003 8.49992 11.4003C8.13173 11.4003 7.83325 11.1018 7.83325 10.7337V10.667C7.83325 10.2988 8.13173 10.0003 8.49992 10.0003Z" fill="#8C919F"/>
</svg>
