<svg width="142" height="26" viewBox="0 0 142 26" fill="none" xmlns="http://www.w3.org/2000/svg">
<g clip-path="url(#clip0_694_47096)">
<path d="M3.06493 1.48047C2.79705 1.80735 2.66061 2.22072 2.68184 2.64115V21.3676C2.66846 21.7286 2.76452 22.0853 2.95765 22.3917L13.4542 11.8849L3.06493 1.48047Z" fill="white"/>
<path d="M13.8362 11.505L17.0733 8.26191L4.87196 1.40021C4.67701 1.26993 4.45581 1.18312 4.22365 1.14579C3.99149 1.10846 3.75392 1.12151 3.52734 1.18402L13.8362 11.505Z" fill="white"/>
<path d="M13.837 12.2637L3.36719 22.7515C3.60929 22.8585 3.8753 22.9015 4.13918 22.8762C4.40307 22.851 4.6558 22.7583 4.87272 22.6074L17.2235 15.6585L13.837 12.2637Z" fill="white"/>
<path d="M21.5334 10.7767L17.5416 8.53125L14.1973 11.8843L17.691 15.3854L21.5219 13.2233C22.7248 12.5481 22.7248 11.4481 21.5334 10.7767Z" fill="white"/>
<path d="M66.8387 10.0809C65.7574 10.0843 64.7014 10.4097 63.8041 11.0159C62.9068 11.6221 62.2084 12.482 61.7973 13.4868C61.3861 14.4916 61.2806 15.5964 61.494 16.6614C61.7075 17.7265 62.2304 18.7041 62.9965 19.4707C63.7627 20.2373 64.7379 20.7586 65.7988 20.9686C66.8597 21.1786 67.9587 21.0679 68.957 20.6505C69.9554 20.2332 70.8082 19.5279 71.4078 18.6238C72.0073 17.7196 72.3267 16.6572 72.3256 15.5708C72.3357 14.845 72.2006 14.1247 71.9281 13.4525C71.6557 12.7803 71.2515 12.17 70.7397 11.6579C70.2278 11.1457 69.6187 10.7422 68.9486 10.4713C68.2784 10.2004 67.5609 10.0676 66.8387 10.0809ZM66.8387 18.9029C66.1734 18.9505 65.5092 18.7958 64.9327 18.4589C64.3561 18.122 63.8937 17.6185 63.6059 17.014C63.318 16.4094 63.218 15.7318 63.3187 15.0693C63.4195 14.4068 63.7163 13.7902 64.1707 13.2995C64.625 12.8089 65.2159 12.4671 65.8663 12.3186C66.5167 12.17 67.1965 12.2216 67.8173 12.4667C68.4381 12.7117 68.9711 13.1388 69.347 13.6925C69.7229 14.2461 69.9242 14.9006 69.9247 15.5708C69.9448 15.9943 69.8804 16.4177 69.7353 16.8159C69.5902 17.2141 69.3674 17.5792 69.0799 17.8896C68.7924 18.2 68.446 18.4496 68.0611 18.6236C67.6762 18.7976 67.2606 18.8926 66.8387 18.9029ZM54.869 10.0809C53.7879 10.0855 52.7325 10.4118 51.8359 11.0187C50.9394 11.6256 50.2419 12.4858 49.8317 13.4908C49.4214 14.4957 49.3167 15.6003 49.5308 16.665C49.7449 17.7296 50.2682 18.7067 51.0346 19.4727C51.801 20.2388 52.7762 20.7594 53.8369 20.9689C54.8977 21.1785 55.9964 21.0675 56.9944 20.65C57.9924 20.2325 58.8448 19.5272 59.4441 18.6232C60.0434 17.7191 60.3627 16.657 60.3616 15.5708C60.3717 14.8446 60.2364 14.1237 59.9636 13.4511C59.6908 12.7785 59.2862 12.168 58.7737 11.6558C58.2612 11.1435 57.6514 10.7402 56.9806 10.4696C56.3098 10.1991 55.5917 10.0669 54.869 10.0809ZM54.869 18.9029C54.2037 18.9505 53.5395 18.7958 52.9629 18.4589C52.3863 18.122 51.924 17.6185 51.6362 17.014C51.3483 16.4094 51.2482 15.7318 51.349 15.0693C51.4497 14.4068 51.7466 13.7902 52.2009 13.2995C52.6553 12.8089 53.2462 12.4671 53.8966 12.3186C54.547 12.17 55.2268 12.2216 55.8476 12.4667C56.4684 12.7117 57.0014 13.1388 57.3773 13.6925C57.7531 14.2461 57.9544 14.9006 57.955 15.5708C57.975 15.9943 57.9106 16.4177 57.7655 16.8159C57.6205 17.2141 57.3976 17.5792 57.1101 17.8896C56.8226 18.2 56.4762 18.4496 56.0914 18.6236C55.7065 18.7976 55.2909 18.8926 54.869 18.9029ZM40.625 11.7643V14.0783H46.1752C46.0982 15.1713 45.6536 16.2056 44.9144 17.0112C44.3577 17.5809 43.6884 18.0271 42.9496 18.321C42.2108 18.6149 41.419 18.7501 40.625 18.7178C38.9881 18.7178 37.4183 18.0644 36.2608 16.9014C35.1033 15.7384 34.453 14.1611 34.453 12.5163C34.453 10.8716 35.1033 9.29427 36.2608 8.13128C37.4183 6.96829 38.9881 6.31492 40.625 6.31492C42.1841 6.29522 43.6881 6.89385 44.8107 7.98098L46.4458 6.33806C45.6815 5.57454 44.7726 4.97277 43.7728 4.56836C42.773 4.16395 41.7027 3.96511 40.625 3.9836C38.3728 3.9836 36.2127 4.88259 34.6201 6.48279C33.0275 8.08299 32.1328 10.2533 32.1328 12.5163C32.1328 14.7794 33.0275 16.9497 34.6201 18.5499C36.2127 20.1501 38.3728 21.0491 40.625 21.0491C41.7251 21.095 42.8223 20.9051 43.8438 20.4922C44.8652 20.0793 45.7875 19.4527 46.5494 18.6541C47.9019 17.1711 48.6231 15.2152 48.5588 13.2047C48.5652 12.7158 48.5228 12.2274 48.4321 11.747L40.625 11.7643ZM98.8789 13.575C98.4241 12.3486 97.0365 10.104 94.1981 10.104C91.3597 10.104 89.0164 12.3254 89.0164 15.5939C89 16.3167 89.129 17.0353 89.3956 17.7069C89.6621 18.3784 90.0607 18.989 90.5676 19.5021C91.0745 20.0152 91.6793 20.4202 92.3456 20.693C93.012 20.9658 93.7262 21.1007 94.4457 21.0896C95.3462 21.095 96.234 20.8752 97.029 20.4501C97.824 20.0249 98.5013 19.4078 98.9998 18.6541L97.1401 17.4046C96.8612 17.8715 96.466 18.2573 95.9935 18.524C95.5211 18.7908 94.9876 18.9294 94.4457 18.926C93.8881 18.9472 93.337 18.7998 92.8638 18.5027C92.3906 18.2057 92.017 17.7728 91.7915 17.26L99.1035 14.2229L98.8789 13.575ZM91.423 15.4088C91.3973 15.007 91.4519 14.6041 91.5835 14.2238C91.7151 13.8434 91.9211 13.4934 92.1894 13.1943C92.4576 12.8951 92.7826 12.6529 93.1454 12.4818C93.5082 12.3108 93.9013 12.2143 94.3017 12.1982C94.7161 12.1697 95.1296 12.2641 95.491 12.4698C95.8523 12.6755 96.1455 12.9834 96.3341 13.3552L91.423 15.4088ZM85.4755 20.7367H87.8822V4.58524H85.4755V20.7367ZM81.5432 11.3073H81.4569C81.0922 10.9079 80.6466 10.5918 80.15 10.3802C79.6534 10.1686 79.1174 10.0666 78.5781 10.0809C77.1275 10.0809 75.7363 10.6599 74.7106 11.6905C73.6848 12.7212 73.1086 14.119 73.1086 15.5766C73.1086 17.0341 73.6848 18.4319 74.7106 19.4626C75.7363 20.4932 77.1275 21.0722 78.5781 21.0722C79.1196 21.0871 79.6577 20.983 80.155 20.7672C80.6522 20.5514 81.0965 20.229 81.4569 19.8227H81.5432V20.6152C81.5432 22.7151 80.4263 23.8432 78.6242 23.8432C78.0226 23.8286 77.439 23.6343 76.9478 23.285C76.4566 22.9357 76.0801 22.4473 75.8664 21.8821L73.7764 22.7614C74.1709 23.726 74.8431 24.5501 75.7068 25.1283C76.5705 25.7066 77.5864 26.0124 78.6242 26.0067C81.4396 26.0067 83.8059 24.3407 83.8059 20.2797V10.4454H81.5029L81.5432 11.3073ZM78.7854 18.9029C77.9599 18.8255 77.1929 18.4413 76.6346 17.8255C76.0762 17.2097 75.7668 16.4067 75.7668 15.5737C75.7668 14.7406 76.0762 13.9376 76.6346 13.3218C77.1929 12.7061 77.9599 12.3218 78.7854 12.2444C80.4263 12.2444 81.7102 13.656 81.7102 15.5939C81.7102 17.5319 80.4205 18.9029 78.7797 18.9029H78.7854ZM110.14 4.58524H104.383V20.7367H106.778V14.6163H110.14C112.8 14.6163 115.414 12.6783 115.414 9.60076C115.414 6.52319 112.789 4.58524 110.14 4.58524ZM110.204 12.3659H106.79V6.82978H110.204C110.576 6.81268 110.948 6.8716 111.297 7.00299C111.646 7.13438 111.965 7.33552 112.235 7.59424C112.504 7.85297 112.719 8.16391 112.865 8.50829C113.012 8.85266 113.088 9.22332 113.088 9.59786C113.088 9.97241 113.012 10.3431 112.865 10.6874C112.719 11.0318 112.504 11.3428 112.235 11.6015C111.965 11.8602 111.646 12.0613 111.297 12.1927C110.948 12.3241 110.576 12.3831 110.204 12.3659ZM125.029 10.052C123.302 10.052 121.494 10.8214 120.751 12.5279L122.864 13.4246C123.078 13.0364 123.399 12.7182 123.788 12.5079C124.177 12.2977 124.618 12.2042 125.058 12.2387C126.302 12.2387 127.562 12.9907 127.58 14.3212V14.4832C126.81 14.0741 125.952 13.8615 125.081 13.8642C122.778 13.8642 120.446 15.1311 120.446 17.4972C120.446 19.6607 122.329 21.0491 124.436 21.0491C125.041 21.0864 125.644 20.9594 126.183 20.6815C126.722 20.4036 127.177 19.9851 127.499 19.4698H127.58V20.7193H129.883V14.5295C129.9 11.6486 127.77 10.0462 125.018 10.0462L125.029 10.052ZM124.741 18.9029C123.953 18.9029 122.859 18.5095 122.859 17.5319C122.859 16.2881 124.223 15.7964 125.403 15.7964C126.168 15.7762 126.924 15.9641 127.591 16.3402C127.509 17.0448 127.173 17.6946 126.645 18.166C126.117 18.6374 125.436 18.8976 124.73 18.8971L124.741 18.9029ZM138.352 10.3991L135.6 17.4046H135.519L132.641 10.3991H130.061L134.322 20.1871L131.881 25.6307H134.385L140.977 10.3991H138.352ZM116.744 20.7367H119.139V4.58524H116.744V20.7367Z" fill="white"/>
</g>
<defs>
<clipPath id="clip0_694_47096">
<rect width="142" height="26" fill="white"/>
</clipPath>
</defs>
</svg>
