<svg width="32" height="32" viewBox="0 0 32 32" fill="none" xmlns="http://www.w3.org/2000/svg">
<path d="M16 6.16187C19.2042 6.16187 19.5837 6.17387 20.8492 6.23166C22.0193 6.28504 22.6547 6.48032 23.0775 6.64478C23.6379 6.86262 24.0374 7.12231 24.4574 7.54224C24.8772 7.96217 25.1375 8.36185 25.3548 8.92214C25.5193 9.34495 25.7146 9.98032 25.768 11.1504C25.8257 12.4159 25.8378 12.7953 25.8378 15.9996C25.8378 19.2039 25.8257 19.5832 25.768 20.8487C25.7146 22.0188 25.5193 22.6542 25.3548 23.077C25.137 23.6374 24.8773 24.037 24.4574 24.4569C24.0374 24.8767 23.6378 25.137 23.0775 25.3544C22.6547 25.5188 22.0193 25.7141 20.8492 25.7675C19.5838 25.8252 19.2043 25.8373 16 25.8373C12.7957 25.8373 12.4164 25.8253 11.1509 25.7675C9.9808 25.7141 9.34543 25.5188 8.92262 25.3544C8.36223 25.1364 7.96265 24.8767 7.54272 24.4569C7.12289 24.037 6.86262 23.6373 6.64526 23.077C6.4807 22.6542 6.28552 22.0188 6.23214 20.8487C6.17444 19.5833 6.16235 19.2038 6.16235 15.9996C6.16235 12.7954 6.17435 12.416 6.23214 11.1504C6.28552 9.98032 6.4808 9.34495 6.64526 8.92214C6.8631 8.36175 7.12279 7.96217 7.54272 7.54224C7.96265 7.12241 8.36233 6.86214 8.92262 6.64478C9.34543 6.48032 9.9808 6.28504 11.1509 6.23166C12.4163 6.17444 12.7958 6.16187 16 6.16187ZM16 4C12.741 4 12.3322 4.01392 11.0523 4.0721C9.77487 4.13028 8.90284 4.33333 8.13959 4.62999C7.35033 4.93683 6.68136 5.34716 6.01421 6.01421C5.34716 6.68136 4.93644 7.35033 4.62999 8.13959C4.33324 8.90294 4.13028 9.77535 4.0721 11.0523C4.01392 12.3323 4 12.7411 4 16C4 19.2589 4.01392 19.6678 4.0721 20.9477C4.13028 22.2251 4.33333 23.0972 4.62999 23.8604C4.93683 24.6497 5.34716 25.3186 6.01421 25.9858C6.68136 26.6529 7.35081 27.0632 8.13959 27.37C8.90294 27.6668 9.77535 27.8697 11.0523 27.9279C12.3322 27.9861 12.741 28 16 28C19.259 28 19.6678 27.9861 20.9477 27.9279C22.2251 27.8697 23.0972 27.6667 23.8604 27.37C24.6497 27.0631 25.3186 26.6528 25.9858 25.9858C26.6529 25.3186 27.0632 24.6492 27.37 23.8604C27.6668 23.0972 27.8697 22.2247 27.9279 20.9477C27.9861 19.6678 28 19.259 28 16C28 12.741 27.9861 12.3322 27.9279 11.0523C27.8697 9.77487 27.6667 8.90284 27.37 8.13959C27.0631 7.35033 26.6528 6.68136 25.9858 6.01421C25.3186 5.34716 24.6492 4.93683 23.8604 4.62999C23.0972 4.33324 22.2247 4.13028 20.9477 4.0721C19.6679 4.01392 19.259 4 16 4ZM16 9.83794C12.5967 9.83794 9.83794 12.5967 9.83794 16C9.83794 19.4033 12.5967 22.1622 16 22.1622C19.4033 22.1622 22.1622 19.4033 22.1622 16C22.1622 12.5967 19.4033 9.83794 16 9.83794ZM16 20.0003C13.791 20.0003 11.9998 18.2097 11.9998 16.0001C11.9998 13.7905 13.791 11.9999 16 11.9999C18.209 11.9999 20.0002 13.7905 20.0002 16.0001C20.0002 18.2097 18.209 20.0003 16 20.0003ZM22.4055 8.15457C21.61 8.15457 20.9655 8.79906 20.9655 9.59457C20.9655 10.3901 21.61 11.0347 22.4055 11.0347C23.201 11.0347 23.8456 10.3901 23.8456 9.59457C23.8456 8.79906 23.2011 8.15457 22.4055 8.15457Z" fill="white"/>
</svg>
