<svg width="136" height="40" viewBox="0 0 136 40" fill="none" xmlns="http://www.w3.org/2000/svg">
<path d="M11.8825 6.95769L5.20906 32.8548C5.1885 32.9371 5.25019 33.0148 5.33243 33.0148H12.0059H18.6793C18.7638 33.0148 18.8255 32.9348 18.8027 32.8548L12.1315 6.95769C12.0995 6.82969 11.9168 6.82969 11.8825 6.95769Z" fill="#10CFC9"/>
<path d="M22.2895 32.9051L28.9584 7.02169C28.979 6.93941 28.9173 6.86169 28.835 6.86169H22.1662H15.4973C15.4128 6.86169 15.3511 6.94169 15.3739 7.02169L22.0428 32.9051C22.0748 33.0331 22.2576 33.0331 22.2895 32.9051Z" fill="#10CFC9"/>
<path d="M41.0738 23.8011V32.9988H35.9082V6.85712L44.9805 6.87769C46.8288 6.88226 48.4257 7.09026 49.776 7.50397C51.1262 7.91769 52.2388 8.4914 53.1161 9.22969C53.9934 9.96569 54.64 10.848 55.058 11.872C55.4761 12.8983 55.684 14.0183 55.6795 15.2343C55.6772 16.4983 55.451 17.6594 55.0009 18.7108C54.5531 19.7645 53.8815 20.6697 52.9882 21.4263C52.0949 22.1828 50.9777 22.7703 49.6389 23.1885C48.3001 23.6068 46.7328 23.8148 44.9348 23.8103L41.0738 23.8011ZM41.108 20.0068L44.944 20.016C45.8875 20.0183 46.71 19.9085 47.4114 19.6868C48.1127 19.4651 48.693 19.1474 49.1545 18.7337C49.616 18.32 49.9587 17.8148 50.1918 17.2183C50.4225 16.6217 50.539 15.9565 50.5413 15.2228C50.5436 14.5234 50.4294 13.8925 50.2032 13.3257C49.9747 12.7588 49.632 12.2765 49.1751 11.8765C48.7182 11.4788 48.1379 11.1725 47.4388 10.96C46.7374 10.7474 45.9172 10.64 44.9737 10.6377L41.1126 10.6285V20.0068H41.108Z" fill="#131313"/>
<path d="M63.5459 33.008H58.2227V6.87543H63.5459V33.008Z" fill="#131313"/>
<path d="M98.8252 28.352C95.7318 28.208 92.5722 27.1017 92.5722 19.9772C92.5722 12.8526 95.7341 11.7463 98.8252 11.6023C103.545 11.3829 104.352 14.3337 104.487 15.2434L106.991 14.9554L109.499 14.6949C109.154 11.8469 106.435 6.55545 98.5739 6.92345C93.534 7.1543 87.5254 9.60916 87.5254 19.9772C87.5254 30.3452 93.534 32.8 98.5739 33.0332C98.8344 33.0446 99.0879 33.0514 99.337 33.0514C106.607 33.0514 109.165 28.0137 109.499 25.2617L104.487 24.7109C104.352 25.6206 103.543 28.5714 98.8252 28.352Z" fill="#131313"/>
<path d="M71.7157 17.9749V10.7657H84.9985V6.85944H66.0703V33.008H83.6323H84.9985V29.0971H84.0024H71.6837V21.8857H73.2075H73.2098H82.145H84.9985V20.9966V17.9749H73.9478H71.7157Z" fill="#131313"/>
<path d="M117.677 17.9749V10.7657H130.959V6.85944H112.031V33.008H129.593H130.959V29.0971H129.963H117.645V21.8857H119.168H119.171H128.106H130.959V20.9966V17.9749H119.909H117.677Z" fill="#131313"/>
</svg>
